<svg width="64" height="64" viewBox="0 0 64 64" fill="none" xmlns="http://www.w3.org/2000/svg">
<path d="M12.5481 0.0161133C5.6542 0.0161133 0.0119629 5.65823 0.0119629 12.5522V51.4541C0.0119629 58.348 5.65408 63.9881 12.5481 63.9881H51.4499C58.3439 63.9881 63.984 58.348 63.984 51.4541V12.5522C63.984 5.65835 58.3439 0.0161133 51.4499 0.0161133H12.5481ZM15.7011 10.5728C19.0066 10.5728 21.0426 12.7428 21.1055 15.5952C21.1055 18.3846 19.0065 20.6156 15.6372 20.6156H15.5752C12.3326 20.6156 10.2368 18.3848 10.2368 15.5952C10.2368 12.7428 12.396 10.5728 15.7011 10.5728H15.7011ZM44.1862 23.9046C50.5433 23.9046 55.3088 28.0596 55.3088 36.9885V53.6573H45.6478V38.1061C45.6478 34.1983 44.2496 31.5321 40.7533 31.5321C38.0843 31.5321 36.4934 33.3291 35.7949 35.0651C35.5397 35.6861 35.477 36.5535 35.477 37.4223V53.6573H25.816C25.816 53.6573 25.9428 27.314 25.816 24.5864H35.479V28.7031C36.7628 26.7223 39.0593 23.9046 44.1862 23.9046V23.9046ZM10.8067 24.5885H20.4676V53.6574H10.8067V24.5885Z" fill="#1271AA"/>
</svg>
