<svg width="64" height="64" viewBox="0 0 64 64" fill="none" xmlns="http://www.w3.org/2000/svg">
<path d="M57.1429 4H6.85714C3.07143 4 0 6.6875 0 10V54C0 57.3125 3.07143 60 6.85714 60H57.1429C60.9286 60 64 57.3125 64 54V10C64 6.6875 60.9286 4 57.1429 4ZM50.1571 23.85C50.1857 24.2 50.1857 24.5625 50.1857 24.9125C50.1857 35.75 40.7571 48.2375 23.5286 48.2375C18.2143 48.2375 13.2857 46.8875 9.14286 44.5625C9.9 44.6375 10.6286 44.6625 11.4 44.6625C15.7857 44.6625 19.8143 43.3625 23.0286 41.1625C18.9143 41.0875 15.4571 38.725 14.2714 35.475C15.7143 35.6625 17.0143 35.6625 18.5 35.325C14.2143 34.5625 11 31.2625 11 27.275V27.175C12.2429 27.7875 13.7 28.1625 15.2286 28.2125C13.9435 27.4645 12.89 26.4498 12.1621 25.2589C11.4342 24.068 11.0546 22.738 11.0571 21.3875C11.0571 19.8625 11.5143 18.4625 12.3286 17.25C16.9429 22.225 23.8714 25.475 31.6429 25.825C30.3143 20.2625 35.0714 15.75 40.7857 15.75C43.4857 15.75 45.9143 16.7375 47.6286 18.3375C49.7429 17.9875 51.7714 17.3 53.5714 16.3625C52.8714 18.2625 51.4 19.8625 49.4571 20.875C51.3429 20.7 53.1714 20.2375 54.8571 19.6C53.5857 21.2375 51.9857 22.6875 50.1571 23.85Z" fill="#1271AA"/>
</svg>
