<svg width="48" height="48" viewBox="0 0 48 48" fill="none" xmlns="http://www.w3.org/2000/svg">
<path d="M45 28.5H39V22.5H36V36H12V12H25.5V9H19.5V3H16.5V9H12C11.2046 9.00079 10.442 9.31712 9.87956 9.87956C9.31712 10.442 9.00079 11.2046 9 12V16.5H3V19.5H9V28.5H3V31.5H9V36C9.00079 36.7954 9.31712 37.558 9.87956 38.1204C10.442 38.6829 11.2046 38.9992 12 39H16.5V45H19.5V39H28.5V45H31.5V39H36C36.7953 38.9988 37.5577 38.6824 38.12 38.12C38.6824 37.5577 38.9988 36.7953 39 36V31.5H45V28.5Z" fill="white"/>
<path d="M31.5 31.5H16.5V16.5H31.5V31.5ZM19.5 28.5H28.5V19.5H19.5V28.5Z" fill="white"/>
<path d="M46.5 19.5H43.5C43.4952 15.5232 41.9134 11.7107 39.1013 8.89866C36.2893 6.08665 32.4768 4.50476 28.5 4.5V1.5C33.2723 1.50516 37.8477 3.40324 41.2222 6.77778C44.5968 10.1523 46.4948 14.7277 46.5 19.5Z" fill="white"/>
<path d="M39 19.5H36C35.9976 17.5116 35.2067 15.6053 33.8007 14.1993C32.3947 12.7933 30.4884 12.0024 28.5 12V9C31.2838 9.00318 33.9527 10.1104 35.9211 12.0789C37.8896 14.0473 38.9968 16.7162 39 19.5Z" fill="white"/>
</svg>
