<svg width="36" height="36" viewBox="0 0 36 36" fill="none" xmlns="http://www.w3.org/2000/svg">
<path d="M31.0608 22.0555C30.888 20.8549 29.961 19.9189 28.7676 19.6399C24.129 18.5527 22.9662 15.8815 22.77 12.9187C21.9474 12.7657 20.484 12.6001 18 12.6001C15.516 12.6001 14.0526 12.7657 13.23 12.9187C13.0338 15.8815 11.871 18.5527 7.23244 19.6399C6.03904 19.9207 5.11204 20.8549 4.93924 22.0555L4.04464 28.2511C3.72964 30.4327 5.33164 32.4001 7.56004 32.4001H28.44C30.6666 32.4001 32.2704 30.4327 31.9554 28.2511L31.0608 22.0555ZM18 27.8857C15.489 27.8857 13.4532 25.8697 13.4532 23.3857C13.4532 20.9017 15.489 18.8857 18 18.8857C20.511 18.8857 22.5468 20.9017 22.5468 23.3857C22.5468 25.8697 20.5092 27.8857 18 27.8857ZM35.91 10.8001C35.8668 8.1001 28.9944 3.6019 18 3.6001C7.00384 3.6019 0.131436 8.1001 0.0900363 10.8001C0.0486363 13.5001 0.127836 17.0137 4.65304 16.4287C9.94684 15.7429 9.62104 13.8943 9.62104 11.2519C9.62104 9.4087 13.9266 8.9641 18 8.9641C22.0734 8.9641 26.3772 9.4087 26.379 11.2519C26.379 13.8943 26.0532 15.7429 31.347 16.4287C35.8704 17.0137 35.9514 13.5001 35.91 10.8001Z" fill="#726F6F"/>
</svg>
