<svg width="48" height="48" viewBox="0 0 48 48" fill="none" xmlns="http://www.w3.org/2000/svg">
<path d="M47.125 9.84375L34.8875 0.65625C34.325 0.234375 33.5625 0 32.7625 0H32V12H48V11.4281C48 10.8375 47.6875 10.2656 47.125 9.84375ZM28 12.75V0H3C1.3375 0 0 1.00312 0 2.25V45.75C0 46.9969 1.3375 48 3 48H45C46.6625 48 48 46.9969 48 45.75V15H31C29.35 15 28 13.9875 28 12.75ZM8 6.75C8 6.33563 8.4475 6 9 6H19C19.5525 6 20 6.33563 20 6.75V8.25C20 8.66438 19.5525 9 19 9H9C8.4475 9 8 8.66438 8 8.25V6.75ZM8 14.25V12.75C8 12.3356 8.4475 12 9 12H19C19.5525 12 20 12.3356 20 12.75V14.25C20 14.6644 19.5525 15 19 15H9C8.4475 15 8 14.6644 8 14.25ZM26 38.9888V41.25C26 41.6644 25.5525 42 25 42H23C22.4475 42 22 41.6644 22 41.25V38.9728C20.5888 38.9184 19.2163 38.5491 18.0788 37.9087C17.5913 37.6341 17.5662 37.0866 18.0075 36.7706L19.4762 35.7197C19.8225 35.4722 20.3375 35.4609 20.7425 35.6512C21.2262 35.8781 21.775 36 22.345 36H25.8587C26.6712 36 27.3337 35.445 27.3337 34.7634C27.3337 34.2056 26.8825 33.7144 26.2375 33.57L20.6125 32.3044C18.2887 31.7812 16.665 30.1087 16.665 28.2366C16.665 25.9378 19.0463 24.0703 21.9988 24.0112V21.75C21.9988 21.3356 22.4463 21 22.9988 21H24.9988C25.5513 21 25.9988 21.3356 25.9988 21.75V24.0272C27.41 24.0816 28.7825 24.45 29.92 25.0913C30.4075 25.3659 30.4325 25.9134 29.9912 26.2294L28.5225 27.2803C28.1762 27.5278 27.6613 27.5391 27.2563 27.3488C26.7725 27.1209 26.2237 27 25.6537 27H22.14C21.3275 27 20.665 27.555 20.665 28.2366C20.665 28.7944 21.1162 29.2856 21.7612 29.43L27.3862 30.6956C29.71 31.2188 31.3337 32.8913 31.3337 34.7634C31.3337 37.0631 28.9525 38.9297 26 38.9888Z" fill="white"/>
</svg>
