<svg width="64" height="64" viewBox="0 0 64 64" fill="none" xmlns="http://www.w3.org/2000/svg">
<path d="M50.6667 23.9999C50.6667 21.5486 50.1838 19.1212 49.2458 16.8565C48.3077 14.5918 46.9327 12.534 45.1993 10.8006C43.466 9.06723 41.4082 7.69226 39.1434 6.75417C36.8787 5.81608 34.4513 5.33325 32 5.33325C29.5487 5.33325 27.1213 5.81608 24.8566 6.75417C22.5918 7.69226 20.534 9.06723 18.8007 10.8006C17.0673 12.534 15.6923 14.5918 14.7542 16.8565C13.8162 19.1212 13.3333 21.5486 13.3333 23.9999C13.3333 27.6986 14.4267 31.1386 16.28 34.0399H16.2587C22.552 43.8932 32 58.6666 32 58.6666L47.7413 34.0399H47.7227C49.6438 31.0436 50.6655 27.5592 50.6667 23.9999ZM32 31.9999C29.8783 31.9999 27.8434 31.1571 26.3431 29.6568C24.8428 28.1565 24 26.1216 24 23.9999C24 21.8782 24.8428 19.8434 26.3431 18.3431C27.8434 16.8428 29.8783 15.9999 32 15.9999C34.1217 15.9999 36.1566 16.8428 37.6569 18.3431C39.1571 19.8434 40 21.8782 40 23.9999C40 26.1216 39.1571 28.1565 37.6569 29.6568C36.1566 31.1571 34.1217 31.9999 32 31.9999Z" fill="#D91313"/>
</svg>
