<svg width="64" height="64" viewBox="0 0 64 64" fill="none" xmlns="http://www.w3.org/2000/svg">
<g clip-path="url(#clip0)">
<path d="M60.4678 64.0003C62.4183 64.0003 64 62.4187 64 60.468V3.53225C64 1.58125 62.4183 0 60.4678 0H3.53225C1.581 0 0 1.58125 0 3.53225V60.468C0 62.4187 1.581 64.0003 3.53225 64.0003H60.4678Z" fill="#1271AA"/>
<path d="M44.1587 64.0005V39.2163H52.478L53.7235 29.5575H44.1587V23.3905C44.1587 20.594 44.9355 18.6883 48.9457 18.6883L54.0605 18.686V10.0473C53.1755 9.9295 50.1395 9.6665 46.6075 9.6665C39.233 9.6665 34.1845 14.1678 34.1845 22.4343V29.5575H25.844V39.2163H34.1845V64.0005H44.1587Z" fill="white"/>
</g>
<defs>
<clipPath id="clip0">
<rect width="64" height="64" fill="white"/>
</clipPath>
</defs>
</svg>
