<svg width="64" height="64" viewBox="0 0 64 64" fill="none" xmlns="http://www.w3.org/2000/svg">
<g clip-path="url(#clip0)">
<path d="M38.6641 32.6947C38.6641 29.2359 35.8345 26.4214 32.3567 26.4214C28.8793 26.4214 26.0498 29.236 26.0498 32.6947C26.0498 36.1544 28.8793 38.9684 32.3567 38.9684C35.8345 38.9684 38.6641 36.1544 38.6641 32.6947ZM48.0346 0.0385742H16.0237C7.20432 0.0385742 0.0291748 7.17598 0.0291748 15.9488V20.3818H23.5651C26.0486 18.6221 29.0817 17.5825 32.3567 17.5825C35.6317 17.5825 38.6652 18.6221 41.1488 20.3818H64.0291V15.9488C64.0291 7.17592 56.854 0.0385742 48.0346 0.0385742ZM54.5122 15.1704C54.5122 16.1426 53.7128 16.9382 52.7351 16.9382H47.244C46.2664 16.9382 45.4668 16.1426 45.4668 15.1704V9.70789C45.4668 8.73573 46.2663 7.94008 47.244 7.94008H52.7351C53.7127 7.94008 54.5122 8.7356 54.5122 9.70789V15.1704ZM47.5498 32.6947C47.5498 41.0285 40.7339 47.8072 32.3567 47.8072C23.9792 47.8072 17.1639 41.0285 17.1639 32.6947C17.1639 30.4004 17.6834 28.2246 18.6073 26.2744H0.0291748V48.0512C0.0291748 56.8246 7.20432 63.9614 16.0237 63.9614H48.0347C56.854 63.9614 64.0292 56.8246 64.0292 48.0512V26.2744H46.1065C47.0303 28.2246 47.5498 30.4004 47.5498 32.6947Z" fill="#1271AA"/>
</g>
<defs>
<clipPath id="clip0">
<rect width="64" height="64" fill="white"/>
</clipPath>
</defs>
</svg>
